{
   "asset": {
    "version": "2.0",
    "generator": "Hand-authored sample"
  },
  "scene": 0,
  "scenes": [
    {
      "nodes": [0]
    }
  ],
  "nodes": [
    {
      "mesh": 0
    }
  ],
  "materials": [
    {
      "name": "HornPlaceholderMaterial",
      "pbrMetallicRoughness": {
        "baseColorFactor": [0.82, 0.36, 0.24, 1.0],
        "metallicFactor": 0.0,
        "roughnessFactor": 0.68
      }
    }
  ],
  "meshes": [
    {
      "name": "HornPlaceholderMesh",
      "primitives": [
        {
            "attributes": {
            "POSITION": 0
          },
          "indices": 1,
          "material": 0
        }
      ]
    }
  ],
  "accessors": [
    {
      "bufferView": 0,
      "componentType": 5126,
      "count": 3,
      "type": "VEC3",
      "max": [1.0, 1.0, 0.0],
      "min": [0.0, 0.0, 0.0]
    },
    {
      "bufferView": 1,
      "componentType": 5125,
      "count": 3,
      "type": "SCALAR",
      "max": [2],
      "min": [0]
    }
  ],
  "bufferViews": [
    {
      "buffer": 0,
      "byteOffset": 0,
      "byteLength": 36,
      "target": 34962
    },
    {
      "buffer": 0,
      "byteOffset": 36,
      "byteLength": 12,
      "target": 34963
    }
  ],
  "buffers": [
    {
      "byteLength": 48,
      "uri": "data:application/octet-stream;base64,"
    }
  ]
}
